<svg id="Capa_1" data-name="Capa 1" xmlns="http://www.w3.org/2000/svg" viewBox="0 0 512 390"><path d="M0,0V390H512V0ZM256,348.17,49.07,195.11,256,42.05,462.93,195.11Z" transform="translate(0 0)"/><path d="M186.45,124A367.16,367.16,0,0,1,348.27,224.74a100.48,100.48,0,0,0,4.37-29.63c0-54.93-43.73-99.54-97.81-99.54A96.54,96.54,0,0,0,186.45,124Z" transform="translate(0 0)"/><path d="M326.7,262.65a96.59,96.59,0,0,1-71.8,32c-54.08,0-97.81-44.61-97.81-99.54a100.87,100.87,0,0,1,6.31-35.22C222.71,176.88,277.88,208.55,326.7,262.65Z" transform="translate(0 0)"/></svg>