<svg id="Capa_1" data-name="Capa 1" xmlns="http://www.w3.org/2000/svg" viewBox="0 0 512 390"><path d="M0,0V390H512V0ZM30,30H240V180H30ZM482,360H30V210H482Zm0-180H270V30H482Z" transform="translate(0 0)"/><path d="M37.86,75.81,63.59,50.1,89.26,75.81,63.59,101.5Z" transform="translate(0 0)"/><path d="M104.14,75.81l25.74-25.69,25.66,25.69-25.66,25.7Z" transform="translate(0 0)"/><path d="M170.42,75.81l25.75-25.68,25.65,25.68-25.65,25.71Z" transform="translate(0 0)"/><path d="M71,127.2l25.74-25.7,25.66,25.7L96.74,152.89Z" transform="translate(0 0)"/><path d="M137.28,127.2,163,101.51l25.65,25.69L163,152.91Z" transform="translate(0 0)"/><rect x="270" y="79.3" width="212" height="51.41"/><rect x="230.3" y="8.7" width="51.41" height="212"/><rect x="30" y="259.3" width="452" height="51.41"/><rect x="30" y="169.3" width="452" height="51.41"/></svg>