<svg id="Layer_1" data-name="Layer 1" xmlns="http://www.w3.org/2000/svg" viewBox="0 0 512 512"><path d="M511.14,309.22a15.18,15.18,0,0,1-.66,1.56c0,.09-.09.19-.14.28-.14.28-.29.55-.46.82a6.42,6.42,0,0,1-.41.65,7.17,7.17,0,0,1-.45.63c-.13.18-.26.35-.4.52a3.88,3.88,0,0,1-.26.31,15.62,15.62,0,0,1-2,1.9c-.24.2-.48.38-.73.56a13.94,13.94,0,0,1-1.65,1c-.19.11-.38.2-.57.29s-.68.31-1,.44a7.68,7.68,0,0,1-.79.28.21.21,0,0,1-.11,0,8.89,8.89,0,0,1-.88.26l-54.48,13.62-8.73,61.1a63.51,63.51,0,0,1-62.57,54.26H332l-13.23,52.91A15,15,0,0,1,304.2,512H111.4a15,15,0,0,1-14.55-18.64l30.07-120.29L109.4,355.55a208.35,208.35,0,0,1-17.92-20.44c1.27.11,2.56.16,3.85.16h32.14a47.12,47.12,0,0,0,47.13-47.11V271c0-.11,0-15,.1-28.94v-5.51c0-3.89.08-7.54.14-10.56v-.28A49.31,49.31,0,0,1,189.3,191,111.33,111.33,0,0,0,171.79,17.83,206.53,206.53,0,0,1,256,0C370.58,0,463.8,93.22,463.8,207.8v27.13L509,295.2A15,15,0,0,1,511.14,309.22Z" transform="translate(-0.01 0)"/><path d="M304.2,512a15,15,0,0,0,14.55-11.36L332,447.73h42.88a63.51,63.51,0,0,0,62.57-54.26l8.73-61.1,54.48-13.62A15,15,0,0,0,509,295.2l-45.2-60.27V207.8C463.8,93.22,370.58,0,256,0V512Z" transform="translate(-0.01 0)"/><path d="M186,119a92.25,92.25,0,0,1-28,66.49,41.13,41.13,0,0,0-12,29v.22c-.24,12.22-.24,36.61-.24,37.54v14.31a39.34,39.34,0,0,1-39.33,39.35H79.58a39.28,39.28,0,0,1-39.34-39.21V214.43a40.92,40.92,0,0,0-2.7-14.72,41,41,0,0,0-9.36-14.38A90.85,90.85,0,0,1,.12,123.73v-.19C.05,122,0,120.52,0,119v-2.61a20.13,20.13,0,0,1,.08-2.19A93.12,93.12,0,0,1,93,26c2.4,0,4.76.09,7.1.27A93.1,93.1,0,0,1,186,119Z" transform="translate(-0.01 0)"/></svg>