<svg id="Layer_1" data-name="Layer 1" xmlns="http://www.w3.org/2000/svg" viewBox="0 0 596 606.6"><defs><style>.cls-1{fill:#fff;}</style></defs><path class="cls-1" d="M674.67,105.64h596V712.25h-596Zm513.12,305c1.35-12.69-.75-25.15-2.7-37.59a155,155,0,0,0-9.28-32.61,214.09,214.09,0,0,0-43.18-66.54c-3.19-3.24-6.07-6.78-9.12-10.16-3.23-3.57-6.4-7.2-9.8-10.6a11.26,11.26,0,0,0-4.22-2.07c-2.07-.72-3.75.95-3.63,3.12.49,8.79,3.83,16.77,7,24.8,5.3,13.63,9.54,27.45,10.8,42.16,1.55,18-.6,35.11-9.7,51.06-6.2,10.87-13.48,20.85-22.85,29.19A158.42,158.42,0,0,1,1061.39,422a189.32,189.32,0,0,1-34,14.52c-9.83,3.1-19.79,5.86-29.81,8.29-7,1.69-14.18,2.73-21.33,3.77-6.33.93-12.71,1.65-19.09,2.12-8.79.65-17.59,1.21-26.4,1.37-5.93.1-11.86-.71-17.8-.83-16.17-.33-32.3-1-48.32-3.42-1.38-.21-2.77-.35-4.14-.61-8.9-1.68-17.81-3.34-26.69-5.12-7.53-1.5-15.08-2.93-22.53-4.78-11-2.75-21.92-5.86-32.87-8.8-2.51-.67-5-1.47-7.54-1.9-3.25-.56-3.75,0-2.69,3.22,1.23,3.69,2.76,7.27,4.13,10.91,3.67,9.79,7.31,19.58,11,29.37,2.87,7.62,5.74,15.25,8.67,22.85,3,7.85,6.19,15.66,9.2,23.52,3.7,9.68,7.27,19.41,10.94,29.1,3.54,9.35,7.18,18.67,10.71,28,3.62,9.61,7.09,19.27,10.74,28.86s7.48,19.19,11.18,28.8c3.4,8.83,6.73,17.7,10.1,26.54.57,1.5,1.4,2.56,3.32,2.2,13.5-2.51,27.05-4.74,40.49-7.53,11.26-2.34,22.44-5.12,33.56-8.06,9.3-2.45,18.53-5.23,27.68-8.2,9.68-3.13,19.39-6.3,28.81-10.12,13.64-5.52,27.23-11.23,40.46-17.65,12.23-5.94,24.11-12.65,35.85-19.52a231.92,231.92,0,0,0,36.15-25.81c11.28-9.93,22.28-20.25,32.6-31.16,6.69-7.07,12.08-15.38,17.77-23.34a153.15,153.15,0,0,0,10.28-16.16c7.9-14.61,15-29.6,19.57-45.66,2-7.1,4.19-14.18,5.59-21.41C1187.89,420.61,1187.56,415.58,1187.79,410.66ZM756.35,337.87l-.24,0c.2,1.94.38,3.88.61,5.81.77,6.45,1.53,12.9,2.36,19.34.56,4.32,1,8.66,1.88,12.94q2.88,14.73,6.12,29.39c.7,3.18,1.17,6.56,5.61,7.28,10.31,1.67,20.58,3.66,30.86,5.51q11.06,2,22.12,4c7.83,1.39,15.67,2.75,23.5,4.14l22.32,4,23.11,4.08q14.65,2.6,29.31,5.17c5.49.95,11,1.9,16.5,2.71,2.87.42,4.1-.94,3.35-3.73-.41-1.57-1.41-3-2-4.52q-5.47-14.42-10.86-28.86c-3.88-10.51-8.09-20.91-11.42-31.59a415.6,415.6,0,0,1-13-52.41c-3.49-20.19-5.56-40.44-3.26-60.94a86.9,86.9,0,0,1,9.66-32.26,66.31,66.31,0,0,1,14.32-18.67c7.34-6.43,16.29-10.29,25.33-13.67A129.35,129.35,0,0,1,996,187.7c12.69-.23,25.44.29,38.1,1.32,15.08,1.21,30.08,3.52,45.15,4.89,4,.37,8.24-.75,12.3-1.53,1.9-.36,2.61-2.07,1.09-3.59-2.19-2.2-4.39-4.68-7.09-6-7.28-3.67-14.81-6.87-22.28-10.15s-14.91-6.69-22.53-9.62-15.58-5.55-23.45-8.06-15.57-5.07-23.52-6.89c-12.13-2.77-24.35-5.25-36.63-7.22-8.87-1.42-17.89-2-26.88-2.6-6.92-.44-13.89-.29-20.84-.29-4.18,0-8.42-.21-12.51.45C887,140,877.18,141.94,867.38,144a116.87,116.87,0,0,0-30,10.91,153.21,153.21,0,0,0-17,10.44,119.16,119.16,0,0,0-36.86,38.73c-5.93,9.63-11.56,19.42-15.57,30a155.92,155.92,0,0,0-5.55,17.5A205.86,205.86,0,0,0,757.92,274c-1.19,8.91-1.81,17.91-2.32,26.9-.38,6.85-.35,13.74-.22,20.61C755.48,326.94,756,332.4,756.35,337.87ZM987.12,235.39a60.66,60.66,0,0,0-39.7,13.74c-11.2,8.92-16.76,20.76-18.51,34.37-1.54,12.05,1.78,23.7,6.45,34.68a85.73,85.73,0,0,0,10.88,18.33,110.24,110.24,0,0,0,22.93,22.2,44.45,44.45,0,0,0,6,4.06c6.86,3.43,13.82,6.66,20.75,10,8.26,3.92,17.19,5.58,26.11,6.37a72.71,72.71,0,0,0,42.89-9.28,48.34,48.34,0,0,0,18.68-18.58,54.55,54.55,0,0,0,6.81-33.25c-1.41-13.09-7-24.59-14.56-35.33a110.39,110.39,0,0,0-23.15-23.48,116.41,116.41,0,0,0-26.58-15.51A101.46,101.46,0,0,0,987.12,235.39Z" transform="translate(-674.67 -105.64)"/><path d="M1187.79,410.66c-.23,4.92.1,9.95-.83,14.73-1.4,7.23-3.59,14.31-5.59,21.41-4.53,16.06-11.67,31.05-19.57,45.66a153.15,153.15,0,0,1-10.28,16.16c-5.69,8-11.08,16.27-17.77,23.34-10.32,10.91-21.32,21.23-32.6,31.16A231.92,231.92,0,0,1,1065,588.93c-11.74,6.87-23.62,13.58-35.85,19.52-13.23,6.42-26.82,12.13-40.46,17.65-9.42,3.82-19.13,7-28.81,10.12-9.15,3-18.38,5.75-27.68,8.2-11.12,2.94-22.3,5.72-33.56,8.06-13.44,2.79-27,5-40.49,7.53-1.92.36-2.75-.7-3.32-2.2-3.37-8.84-6.7-17.71-10.1-26.54-3.7-9.61-7.53-19.17-11.18-28.8s-7.12-19.25-10.74-28.86c-3.53-9.36-7.17-18.68-10.71-28-3.67-9.69-7.24-19.42-10.94-29.1-3-7.86-6.17-15.67-9.2-23.52-2.93-7.6-5.8-15.23-8.67-22.85-3.68-9.79-7.32-19.58-11-29.37-1.37-3.64-2.9-7.22-4.13-10.91-1.06-3.2-.56-3.78,2.69-3.22,2.54.43,5,1.23,7.54,1.9,11,2.94,21.87,6.05,32.87,8.8,7.45,1.85,15,3.28,22.53,4.78,8.88,1.78,17.79,3.44,26.69,5.12,1.37.26,2.76.4,4.14.61,16,2.42,32.15,3.09,48.32,3.42,5.94.12,11.87.93,17.8.83,8.81-.16,17.61-.72,26.4-1.37,6.38-.47,12.76-1.19,19.09-2.12,7.15-1,14.33-2.08,21.33-3.77,10-2.43,20-5.19,29.81-8.29a189.32,189.32,0,0,0,34-14.52,158.42,158.42,0,0,0,29.67-20.58c9.37-8.34,16.65-18.32,22.85-29.19,9.1-16,11.25-33.05,9.7-51.06-1.26-14.71-5.5-28.53-10.8-42.16-3.12-8-6.46-16-7-24.8-.12-2.17,1.56-3.84,3.63-3.12a11.26,11.26,0,0,1,4.22,2.07c3.4,3.4,6.57,7,9.8,10.6,3,3.38,5.93,6.92,9.12,10.16a214.09,214.09,0,0,1,43.18,66.54,155,155,0,0,1,9.28,32.61C1187,385.51,1189.14,398,1187.79,410.66Z" transform="translate(-674.67 -105.64)"/><path d="M756.35,337.87c-.34-5.47-.87-10.93-1-16.4-.13-6.87-.16-13.76.22-20.61.51-9,1.13-18,2.32-26.9a205.86,205.86,0,0,1,4.47-22.37,155.92,155.92,0,0,1,5.55-17.5c4-10.59,9.64-20.38,15.57-30a119.16,119.16,0,0,1,36.86-38.73,153.21,153.21,0,0,1,17-10.44,116.87,116.87,0,0,1,30-10.91c9.8-2.06,19.63-4,29.51-5.63,4.09-.66,8.33-.44,12.51-.45,7,0,13.92-.15,20.84.29,9,.56,18,1.18,26.88,2.6,12.28,2,24.5,4.45,36.63,7.22,8,1.82,15.73,4.4,23.52,6.89S1033,160,1040.72,163s15.06,6.33,22.53,9.62,15,6.48,22.28,10.15c2.7,1.36,4.9,3.84,7.09,6,1.52,1.52.81,3.23-1.09,3.59-4.06.78-8.27,1.9-12.3,1.53-15.07-1.37-30.07-3.68-45.15-4.89-12.66-1-25.41-1.55-38.1-1.32a129.35,129.35,0,0,0-43.41,7.85c-9,3.38-18,7.24-25.33,13.67a66.31,66.31,0,0,0-14.32,18.67,86.9,86.9,0,0,0-9.66,32.26c-2.3,20.5-.23,40.75,3.26,60.94a415.6,415.6,0,0,0,13,52.41c3.33,10.68,7.54,21.08,11.42,31.59q5.36,14.46,10.86,28.86c.58,1.54,1.58,2.95,2,4.52.75,2.79-.48,4.15-3.35,3.73-5.51-.81-11-1.76-16.5-2.71q-14.65-2.55-29.31-5.17l-23.11-4.08-22.32-4c-7.83-1.39-15.67-2.75-23.5-4.14q-11.05-2-22.12-4c-10.28-1.85-20.55-3.84-30.86-5.51-4.44-.72-4.91-4.1-5.61-7.28Q763.84,390.72,761,376c-.84-4.28-1.32-8.62-1.88-12.94-.83-6.44-1.59-12.89-2.36-19.34-.23-1.93-.41-3.87-.61-5.81Z" transform="translate(-674.67 -105.64)"/><path d="M987.12,235.39a101.46,101.46,0,0,1,39,8.27,116.41,116.41,0,0,1,26.58,15.51,110.39,110.39,0,0,1,23.15,23.48c7.58,10.74,13.15,22.24,14.56,35.33a54.55,54.55,0,0,1-6.81,33.25,48.34,48.34,0,0,1-18.68,18.58,72.71,72.71,0,0,1-42.89,9.28c-8.92-.79-17.85-2.45-26.11-6.37-6.93-3.29-13.89-6.52-20.75-10a44.45,44.45,0,0,1-6-4.06,110.24,110.24,0,0,1-22.93-22.2,85.73,85.73,0,0,1-10.88-18.33c-4.67-11-8-22.63-6.45-34.68,1.75-13.61,7.31-25.45,18.51-34.37A60.66,60.66,0,0,1,987.12,235.39Z" transform="translate(-674.67 -105.64)"/></svg>