<svg id="Layer_1" data-name="Layer 1" xmlns="http://www.w3.org/2000/svg" viewBox="0 0 100.01 100"><path d="M106.09,20.5a1.41,1.41,0,0,1,1.41,1.41h0V106.1a1.41,1.41,0,0,1-1.41,1.41H21.91a1.41,1.41,0,0,1-1.41-1.41h0V21.91a1.41,1.41,0,0,1,1.41-1.41H106.1m0-6.5H21.91A7.91,7.91,0,0,0,14,21.91h0V106.1a7.92,7.92,0,0,0,7.91,7.9H106.1a7.91,7.91,0,0,0,7.91-7.91h0V21.91A7.91,7.91,0,0,0,106.1,14h0Z" transform="translate(-14 -14)"/><rect x="23.27" y="36.4" width="11.73" height="41.73"/><path d="M77.23,50.4c-10,0-10.23,5.81-10.23,6.21V50.4H55V92.13H67V68.31c0-1.86.55-5.86,6.23-5.86s5.63,5.73,5.63,5.73v24H90.73v-26C90.73,53.85,84,50.4,77.23,50.4Z" transform="translate(-14 -14)"/><circle cx="29.13" cy="27.73" r="5.86"/></svg>