<svg id="Capa_1" data-name="Capa 1" xmlns="http://www.w3.org/2000/svg" viewBox="0 0 486.24 487.1"><path d="M256,99.56C169.74,99.56,99.55,169.74,99.55,256S169.74,412.44,256,412.44,412.44,342.26,412.44,256,342.25,99.56,256,99.56Z" transform="translate(-12.87 -12.51)"/><path d="M380.87,312.83a296.21,296.21,0,0,1-68.63,68.43,12.92,12.92,0,0,0,4.18,23l97.89,26.35a12.93,12.93,0,0,0,15.85-15.85L403.86,317A12.92,12.92,0,0,0,380.87,312.83Z" transform="translate(-12.87 -12.51)"/><path d="M244.72,19.12l-50,89.09a12.92,12.92,0,0,0,13.46,19.06,287.26,287.26,0,0,1,95.66,0,12.92,12.92,0,0,0,13.46-19.06l-50-89.09A12.93,12.93,0,0,0,244.72,19.12Z" transform="translate(-12.87 -12.51)"/><path d="M81.88,97.69l26.23,97.16a12.92,12.92,0,0,0,23,4.12,291.32,291.32,0,0,1,67.74-67.91,12.92,12.92,0,0,0-4.17-23L97.75,81.83A12.93,12.93,0,0,0,81.88,97.69Z" transform="translate(-12.87 -12.51)"/><path d="M108.2,194.34,19.42,244.68a13,13,0,0,0,0,22.51l88.78,50.34a12.93,12.93,0,0,0,19.12-13.43,292.71,292.71,0,0,1,0-96.33A12.93,12.93,0,0,0,108.2,194.34Z" transform="translate(-12.87 -12.51)"/><path d="M108.14,317l-26.3,97.74a12.94,12.94,0,0,0,15.85,15.85l97.89-26.35a12.92,12.92,0,0,0,4.18-23,296.4,296.4,0,0,1-68.63-68.43A12.92,12.92,0,0,0,108.14,317Z" transform="translate(-12.87 -12.51)"/><path d="M256,388.61a289.13,289.13,0,0,1-48.67-4.05,12.92,12.92,0,0,0-13.4,19.13l50.83,89.38a12.94,12.94,0,0,0,22.49,0l50.83-89.39a12.92,12.92,0,0,0-13.41-19.12A289.13,289.13,0,0,1,256,388.61Z" transform="translate(-12.87 -12.51)"/><path d="M312.89,131.3a296.29,296.29,0,0,1,68,68,12.93,12.93,0,0,0,23-4.15l26.43-97.39a12.94,12.94,0,0,0-15.88-15.87l-97.33,26.42A12.92,12.92,0,0,0,312.89,131.3Z" transform="translate(-12.87 -12.51)"/><path d="M492.55,244.92l-88.91-50.33A12.92,12.92,0,0,0,384.54,208a279.92,279.92,0,0,1-.09,96.33,12.93,12.93,0,0,0,19.11,13.46l89-50.39A12.93,12.93,0,0,0,492.55,244.92Z" transform="translate(-12.87 -12.51)"/></svg>