<svg id="Layer_1" data-name="Layer 1" xmlns="http://www.w3.org/2000/svg" viewBox="0 0 509.65 512.39"><path d="M165-.39A165.45,165.45,0,0,0,27.81,257.45c-15.23,32.81-22.6,39.49-14.95,47.14S26.3,307.27,65.32,297A165.42,165.42,0,1,0,165-.39ZM235.18,238a12,12,0,1,1-11.53,21,137.36,137.36,0,0,1-59.33-64.36A137.26,137.26,0,0,1,105,259a12,12,0,0,1-11.52-21,113.35,113.35,0,0,0,57.58-82.48H109a12,12,0,1,1,0-24h43.3V81.56a12,12,0,0,1,24,0v49.95h54.5a12,12,0,0,1,0,24H177.59A113.35,113.35,0,0,0,235.18,238Z" transform="translate(0.39 0.39)"/><polygon points="375.88 290.76 398.24 341.71 353.52 341.71 375.88 290.76"/><path d="M470,180H349.4A185,185,0,0,1,188,348.59V416a42,42,0,0,0,42,42H371.43l63.24,51.74A10,10,0,0,0,451,502V458h19a42.07,42.07,0,0,0,39.26-27.08V207.08A42.07,42.07,0,0,0,470,180ZM440.2,409.41a11.43,11.43,0,0,1-15.05-5.88l-17.28-39.36H343.11l-17.27,39.36a11.43,11.43,0,1,1-20.93-9.18l13.73-31.28a11.42,11.42,0,0,1,4.86-21.75h4.68l36.85-84a11.43,11.43,0,0,1,20.93,0l36.84,84h4.68a11.42,11.42,0,0,1,4.87,21.75l13.72,31.28A11.43,11.43,0,0,1,440.2,409.41Z" transform="translate(0.39 0.39)"/></svg>