<svg id="Layer_1" data-name="Layer 1" xmlns="http://www.w3.org/2000/svg" viewBox="0 0 109 109"><defs><style>.cls-1,.cls-2{stroke:#000;stroke-miterlimit:10;}.cls-2{stroke-width:6.5px;}</style></defs><path class="cls-1" d="M64,16A47.5,47.5,0,1,1,16.5,63.5,47.5,47.5,0,0,1,64,16m0-6.5a54,54,0,1,0,54,54A54,54,0,0,0,64,9.5Z" transform="translate(-9.5 -9)"/><path class="cls-1" d="M65.08,16c2.09,0,5.78,3.66,8.93,11.69,3.71,9.46,5.75,22.18,5.75,35.81s-2,26.35-5.75,35.81c-3.15,8-6.83,11.69-8.93,11.69s-5.78-3.66-8.93-11.69c-3.7-9.46-5.75-22.18-5.75-35.81s2-26.35,5.75-35.81C59.31,19.65,63,16,65.08,16m0-6.5c-11.7,0-21.18,24.18-21.18,54s9.48,54,21.18,54,21.18-24.18,21.18-54S76.78,9.5,65.08,9.5Z" transform="translate(-9.5 -9)"/><line class="cls-2" x1="8.16" y1="71.37" x2="103" y2="71.37"/><line class="cls-2" x1="8.16" y1="37.62" x2="103" y2="37.62"/></svg>